<?xml version="1.0" standalone="no"?>
<svg xmlns:xlink="http://www.w3.org/1999/xlink" id="wave" style="transform:rotate(0deg); transition: 0.3s" viewBox="0 0 1440 490" version="1.1" xmlns="http://www.w3.org/2000/svg"><defs><linearGradient id="sw-gradient-0" x1="0" x2="0" y1="1" y2="0"><stop stop-color="rgba(48, 64, 87, 1)" offset="0%"/><stop stop-color="rgba(86, 123, 221, 1)" offset="100%"/></linearGradient></defs><path style="transform:translate(0, 0px); opacity:1" fill="url(#sw-gradient-0)" d="M0,441L26.7,408.3C53.3,376,107,310,160,294C213.3,278,267,310,320,277.7C373.3,245,427,147,480,130.7C533.3,114,587,180,640,245C693.3,310,747,376,800,383.8C853.3,392,907,343,960,334.8C1013.3,327,1067,359,1120,318.5C1173.3,278,1227,163,1280,98C1333.3,33,1387,16,1440,81.7C1493.3,147,1547,294,1600,343C1653.3,392,1707,343,1760,277.7C1813.3,212,1867,131,1920,81.7C1973.3,33,2027,16,2080,65.3C2133.3,114,2187,229,2240,269.5C2293.3,310,2347,278,2400,245C2453.3,212,2507,180,2560,187.8C2613.3,196,2667,245,2720,269.5C2773.3,294,2827,294,2880,245C2933.3,196,2987,98,3040,81.7C3093.3,65,3147,131,3200,155.2C3253.3,180,3307,163,3360,163.3C3413.3,163,3467,180,3520,196C3573.3,212,3627,229,3680,245C3733.3,261,3787,278,3813,285.8L3840,294L3840,490L3813.3,490C3786.7,490,3733,490,3680,490C3626.7,490,3573,490,3520,490C3466.7,490,3413,490,3360,490C3306.7,490,3253,490,3200,490C3146.7,490,3093,490,3040,490C2986.7,490,2933,490,2880,490C2826.7,490,2773,490,2720,490C2666.7,490,2613,490,2560,490C2506.7,490,2453,490,2400,490C2346.7,490,2293,490,2240,490C2186.7,490,2133,490,2080,490C2026.7,490,1973,490,1920,490C1866.7,490,1813,490,1760,490C1706.7,490,1653,490,1600,490C1546.7,490,1493,490,1440,490C1386.7,490,1333,490,1280,490C1226.7,490,1173,490,1120,490C1066.7,490,1013,490,960,490C906.7,490,853,490,800,490C746.7,490,693,490,640,490C586.7,490,533,490,480,490C426.7,490,373,490,320,490C266.7,490,213,490,160,490C106.7,490,53,490,27,490L0,490Z"/><defs><linearGradient id="sw-gradient-1" x1="0" x2="0" y1="1" y2="0"><stop stop-color="rgba(30, 91, 109, 1)" offset="0%"/><stop stop-color="rgba(34, 47, 74, 1)" offset="100%"/></linearGradient></defs><path style="transform:translate(0, 50px); opacity:0.9" fill="url(#sw-gradient-1)" d="M0,392L26.7,326.7C53.3,261,107,131,160,73.5C213.3,16,267,33,320,73.5C373.3,114,427,180,480,236.8C533.3,294,587,343,640,375.7C693.3,408,747,425,800,416.5C853.3,408,907,376,960,375.7C1013.3,376,1067,408,1120,367.5C1173.3,327,1227,212,1280,155.2C1333.3,98,1387,98,1440,114.3C1493.3,131,1547,163,1600,196C1653.3,229,1707,261,1760,253.2C1813.3,245,1867,196,1920,147C1973.3,98,2027,49,2080,81.7C2133.3,114,2187,229,2240,228.7C2293.3,229,2347,114,2400,81.7C2453.3,49,2507,98,2560,138.8C2613.3,180,2667,212,2720,196C2773.3,180,2827,114,2880,130.7C2933.3,147,2987,245,3040,285.8C3093.3,327,3147,310,3200,302.2C3253.3,294,3307,294,3360,294C3413.3,294,3467,294,3520,318.5C3573.3,343,3627,392,3680,392C3733.3,392,3787,343,3813,318.5L3840,294L3840,490L3813.3,490C3786.7,490,3733,490,3680,490C3626.7,490,3573,490,3520,490C3466.7,490,3413,490,3360,490C3306.7,490,3253,490,3200,490C3146.7,490,3093,490,3040,490C2986.7,490,2933,490,2880,490C2826.7,490,2773,490,2720,490C2666.7,490,2613,490,2560,490C2506.7,490,2453,490,2400,490C2346.7,490,2293,490,2240,490C2186.7,490,2133,490,2080,490C2026.7,490,1973,490,1920,490C1866.7,490,1813,490,1760,490C1706.7,490,1653,490,1600,490C1546.7,490,1493,490,1440,490C1386.7,490,1333,490,1280,490C1226.7,490,1173,490,1120,490C1066.7,490,1013,490,960,490C906.7,490,853,490,800,490C746.7,490,693,490,640,490C586.7,490,533,490,480,490C426.7,490,373,490,320,490C266.7,490,213,490,160,490C106.7,490,53,490,27,490L0,490Z"/><defs><linearGradient id="sw-gradient-2" x1="0" x2="0" y1="1" y2="0"><stop stop-color="rgba(211, 115, 44, 1)" offset="0%"/><stop stop-color="rgba(112, 203, 222, 1)" offset="100%"/></linearGradient></defs><path style="transform:translate(0, 100px); opacity:0.8" fill="url(#sw-gradient-2)" d="M0,98L26.7,89.8C53.3,82,107,65,160,49C213.3,33,267,16,320,40.8C373.3,65,427,131,480,147C533.3,163,587,131,640,138.8C693.3,147,747,196,800,228.7C853.3,261,907,278,960,245C1013.3,212,1067,131,1120,81.7C1173.3,33,1227,16,1280,73.5C1333.3,131,1387,261,1440,269.5C1493.3,278,1547,163,1600,114.3C1653.3,65,1707,82,1760,147C1813.3,212,1867,327,1920,318.5C1973.3,310,2027,180,2080,163.3C2133.3,147,2187,245,2240,302.2C2293.3,359,2347,376,2400,351.2C2453.3,327,2507,261,2560,253.2C2613.3,245,2667,294,2720,310.3C2773.3,327,2827,310,2880,261.3C2933.3,212,2987,131,3040,98C3093.3,65,3147,82,3200,73.5C3253.3,65,3307,33,3360,24.5C3413.3,16,3467,33,3520,32.7C3573.3,33,3627,16,3680,32.7C3733.3,49,3787,98,3813,122.5L3840,147L3840,490L3813.3,490C3786.7,490,3733,490,3680,490C3626.7,490,3573,490,3520,490C3466.7,490,3413,490,3360,490C3306.7,490,3253,490,3200,490C3146.7,490,3093,490,3040,490C2986.7,490,2933,490,2880,490C2826.7,490,2773,490,2720,490C2666.7,490,2613,490,2560,490C2506.7,490,2453,490,2400,490C2346.7,490,2293,490,2240,490C2186.7,490,2133,490,2080,490C2026.7,490,1973,490,1920,490C1866.7,490,1813,490,1760,490C1706.7,490,1653,490,1600,490C1546.7,490,1493,490,1440,490C1386.7,490,1333,490,1280,490C1226.7,490,1173,490,1120,490C1066.7,490,1013,490,960,490C906.7,490,853,490,800,490C746.7,490,693,490,640,490C586.7,490,533,490,480,490C426.7,490,373,490,320,490C266.7,490,213,490,160,490C106.7,490,53,490,27,490L0,490Z"/><defs><linearGradient id="sw-gradient-3" x1="0" x2="0" y1="1" y2="0"><stop stop-color="rgba(243, 106, 62, 1)" offset="0%"/><stop stop-color="rgba(255, 179, 11, 1)" offset="100%"/></linearGradient></defs><path style="transform:translate(0, 150px); opacity:0.7" fill="url(#sw-gradient-3)" d="M0,98L26.7,147C53.3,196,107,294,160,343C213.3,392,267,392,320,334.8C373.3,278,427,163,480,147C533.3,131,587,212,640,253.2C693.3,294,747,294,800,318.5C853.3,343,907,392,960,351.2C1013.3,310,1067,180,1120,179.7C1173.3,180,1227,310,1280,318.5C1333.3,327,1387,212,1440,212.3C1493.3,212,1547,327,1600,375.7C1653.3,425,1707,408,1760,408.3C1813.3,408,1867,425,1920,400.2C1973.3,376,2027,310,2080,245C2133.3,180,2187,114,2240,130.7C2293.3,147,2347,245,2400,261.3C2453.3,278,2507,212,2560,163.3C2613.3,114,2667,82,2720,106.2C2773.3,131,2827,212,2880,261.3C2933.3,310,2987,327,3040,334.8C3093.3,343,3147,343,3200,326.7C3253.3,310,3307,278,3360,228.7C3413.3,180,3467,114,3520,138.8C3573.3,163,3627,278,3680,302.2C3733.3,327,3787,261,3813,228.7L3840,196L3840,490L3813.3,490C3786.7,490,3733,490,3680,490C3626.7,490,3573,490,3520,490C3466.7,490,3413,490,3360,490C3306.7,490,3253,490,3200,490C3146.7,490,3093,490,3040,490C2986.7,490,2933,490,2880,490C2826.7,490,2773,490,2720,490C2666.7,490,2613,490,2560,490C2506.7,490,2453,490,2400,490C2346.7,490,2293,490,2240,490C2186.7,490,2133,490,2080,490C2026.7,490,1973,490,1920,490C1866.7,490,1813,490,1760,490C1706.7,490,1653,490,1600,490C1546.7,490,1493,490,1440,490C1386.7,490,1333,490,1280,490C1226.7,490,1173,490,1120,490C1066.7,490,1013,490,960,490C906.7,490,853,490,800,490C746.7,490,693,490,640,490C586.7,490,533,490,480,490C426.7,490,373,490,320,490C266.7,490,213,490,160,490C106.7,490,53,490,27,490L0,490Z"/></svg>