<?xml version="1.0" standalone="no"?>
<svg xmlns:xlink="http://www.w3.org/1999/xlink" id="wave" style="transform:rotate(0deg); transition: 0.3s" viewBox="0 0 1440 490" version="1.1" xmlns="http://www.w3.org/2000/svg"><defs><linearGradient id="sw-gradient-0" x1="0" x2="0" y1="1" y2="0"><stop stop-color="rgba(24, 37, 56, 1)" offset="0%"/><stop stop-color="rgba(84, 119, 218, 1)" offset="100%"/></linearGradient></defs><path style="transform:translate(0, 0px); opacity:1" fill="url(#sw-gradient-0)" d="M0,147L20,155.2C40,163,80,180,120,228.7C160,278,200,359,240,334.8C280,310,320,180,360,171.5C400,163,440,278,480,318.5C520,359,560,327,600,285.8C640,245,680,196,720,155.2C760,114,800,82,840,65.3C880,49,920,49,960,73.5C1000,98,1040,147,1080,147C1120,147,1160,98,1200,130.7C1240,163,1280,278,1320,334.8C1360,392,1400,392,1440,392C1480,392,1520,392,1560,367.5C1600,343,1640,294,1680,261.3C1720,229,1760,212,1800,220.5C1840,229,1880,261,1920,245C1960,229,2000,163,2040,179.7C2080,196,2120,294,2160,334.8C2200,376,2240,359,2280,294C2320,229,2360,114,2400,65.3C2440,16,2480,33,2520,65.3C2560,98,2600,147,2640,212.3C2680,278,2720,359,2760,351.2C2800,343,2840,245,2860,196L2880,147L2880,490L2860,490C2840,490,2800,490,2760,490C2720,490,2680,490,2640,490C2600,490,2560,490,2520,490C2480,490,2440,490,2400,490C2360,490,2320,490,2280,490C2240,490,2200,490,2160,490C2120,490,2080,490,2040,490C2000,490,1960,490,1920,490C1880,490,1840,490,1800,490C1760,490,1720,490,1680,490C1640,490,1600,490,1560,490C1520,490,1480,490,1440,490C1400,490,1360,490,1320,490C1280,490,1240,490,1200,490C1160,490,1120,490,1080,490C1040,490,1000,490,960,490C920,490,880,490,840,490C800,490,760,490,720,490C680,490,640,490,600,490C560,490,520,490,480,490C440,490,400,490,360,490C320,490,280,490,240,490C200,490,160,490,120,490C80,490,40,490,20,490L0,490Z"/></svg>