<?xml version="1.0" standalone="no"?>
<svg xmlns:xlink="http://www.w3.org/1999/xlink" id="wave" style="transform:rotate(0deg); transition: 0.3s" viewBox="0 0 1440 490" version="1.1" xmlns="http://www.w3.org/2000/svg"><defs><linearGradient id="sw-gradient-0" x1="0" x2="0" y1="1" y2="0"><stop stop-color="rgba(243, 106, 62, 1)" offset="0%"/><stop stop-color="rgba(255, 179, 11, 1)" offset="100%"/></linearGradient></defs><path style="transform:translate(0, 0px); opacity:1" fill="url(#sw-gradient-0)" d="M0,147L20,179.7C40,212,80,278,120,277.7C160,278,200,212,240,196C280,180,320,212,360,187.8C400,163,440,82,480,114.3C520,147,560,294,600,359.3C640,425,680,408,720,383.8C760,359,800,327,840,302.2C880,278,920,261,960,269.5C1000,278,1040,310,1080,318.5C1120,327,1160,310,1200,277.7C1240,245,1280,196,1320,179.7C1360,163,1400,180,1440,228.7C1480,278,1520,359,1560,359.3C1600,359,1640,278,1680,277.7C1720,278,1760,359,1800,383.8C1840,408,1880,376,1920,310.3C1960,245,2000,147,2040,98C2080,49,2120,49,2160,98C2200,147,2240,245,2280,236.8C2320,229,2360,114,2400,122.5C2440,131,2480,261,2520,318.5C2560,376,2600,359,2640,351.2C2680,343,2720,343,2760,318.5C2800,294,2840,245,2860,220.5L2880,196L2880,490L2860,490C2840,490,2800,490,2760,490C2720,490,2680,490,2640,490C2600,490,2560,490,2520,490C2480,490,2440,490,2400,490C2360,490,2320,490,2280,490C2240,490,2200,490,2160,490C2120,490,2080,490,2040,490C2000,490,1960,490,1920,490C1880,490,1840,490,1800,490C1760,490,1720,490,1680,490C1640,490,1600,490,1560,490C1520,490,1480,490,1440,490C1400,490,1360,490,1320,490C1280,490,1240,490,1200,490C1160,490,1120,490,1080,490C1040,490,1000,490,960,490C920,490,880,490,840,490C800,490,760,490,720,490C680,490,640,490,600,490C560,490,520,490,480,490C440,490,400,490,360,490C320,490,280,490,240,490C200,490,160,490,120,490C80,490,40,490,20,490L0,490Z"/><defs><linearGradient id="sw-gradient-1" x1="0" x2="0" y1="1" y2="0"><stop stop-color="rgba(243, 106, 62, 1)" offset="0%"/><stop stop-color="rgba(255, 179, 11, 1)" offset="100%"/></linearGradient></defs><path style="transform:translate(0, 50px); opacity:0.9" fill="url(#sw-gradient-1)" d="M0,147L20,196C40,245,80,343,120,383.8C160,425,200,408,240,334.8C280,261,320,131,360,122.5C400,114,440,229,480,236.8C520,245,560,147,600,163.3C640,180,680,310,720,310.3C760,310,800,180,840,155.2C880,131,920,212,960,277.7C1000,343,1040,392,1080,408.3C1120,425,1160,408,1200,392C1240,376,1280,359,1320,343C1360,327,1400,310,1440,310.3C1480,310,1520,327,1560,334.8C1600,343,1640,343,1680,302.2C1720,261,1760,180,1800,179.7C1840,180,1880,261,1920,310.3C1960,359,2000,376,2040,392C2080,408,2120,425,2160,367.5C2200,310,2240,180,2280,163.3C2320,147,2360,245,2400,261.3C2440,278,2480,212,2520,163.3C2560,114,2600,82,2640,57.2C2680,33,2720,16,2760,32.7C2800,49,2840,98,2860,122.5L2880,147L2880,490L2860,490C2840,490,2800,490,2760,490C2720,490,2680,490,2640,490C2600,490,2560,490,2520,490C2480,490,2440,490,2400,490C2360,490,2320,490,2280,490C2240,490,2200,490,2160,490C2120,490,2080,490,2040,490C2000,490,1960,490,1920,490C1880,490,1840,490,1800,490C1760,490,1720,490,1680,490C1640,490,1600,490,1560,490C1520,490,1480,490,1440,490C1400,490,1360,490,1320,490C1280,490,1240,490,1200,490C1160,490,1120,490,1080,490C1040,490,1000,490,960,490C920,490,880,490,840,490C800,490,760,490,720,490C680,490,640,490,600,490C560,490,520,490,480,490C440,490,400,490,360,490C320,490,280,490,240,490C200,490,160,490,120,490C80,490,40,490,20,490L0,490Z"/><defs><linearGradient id="sw-gradient-2" x1="0" x2="0" y1="1" y2="0"><stop stop-color="rgba(243, 106, 62, 1)" offset="0%"/><stop stop-color="rgba(255, 179, 11, 1)" offset="100%"/></linearGradient></defs><path style="transform:translate(0, 100px); opacity:0.8" fill="url(#sw-gradient-2)" d="M0,245L20,245C40,245,80,245,120,228.7C160,212,200,180,240,147C280,114,320,82,360,130.7C400,180,440,310,480,326.7C520,343,560,245,600,179.7C640,114,680,82,720,73.5C760,65,800,82,840,138.8C880,196,920,294,960,343C1000,392,1040,392,1080,351.2C1120,310,1160,229,1200,204.2C1240,180,1280,212,1320,236.8C1360,261,1400,278,1440,294C1480,310,1520,327,1560,351.2C1600,376,1640,408,1680,351.2C1720,294,1760,147,1800,89.8C1840,33,1880,65,1920,89.8C1960,114,2000,131,2040,130.7C2080,131,2120,114,2160,122.5C2200,131,2240,163,2280,155.2C2320,147,2360,98,2400,114.3C2440,131,2480,212,2520,204.2C2560,196,2600,98,2640,49C2680,0,2720,0,2760,57.2C2800,114,2840,229,2860,285.8L2880,343L2880,490L2860,490C2840,490,2800,490,2760,490C2720,490,2680,490,2640,490C2600,490,2560,490,2520,490C2480,490,2440,490,2400,490C2360,490,2320,490,2280,490C2240,490,2200,490,2160,490C2120,490,2080,490,2040,490C2000,490,1960,490,1920,490C1880,490,1840,490,1800,490C1760,490,1720,490,1680,490C1640,490,1600,490,1560,490C1520,490,1480,490,1440,490C1400,490,1360,490,1320,490C1280,490,1240,490,1200,490C1160,490,1120,490,1080,490C1040,490,1000,490,960,490C920,490,880,490,840,490C800,490,760,490,720,490C680,490,640,490,600,490C560,490,520,490,480,490C440,490,400,490,360,490C320,490,280,490,240,490C200,490,160,490,120,490C80,490,40,490,20,490L0,490Z"/></svg>